<svg xmlns="http://www.w3.org/2000/svg" width="390" height="844" viewBox="0 0 390 844">
  <defs>
    <linearGradient id="hdr" x1="0" y1="0" x2="0" y2="1">
      <stop offset="0%" stop-color="#0d1b3e"/>
      <stop offset="100%" stop-color="#1e3a8a"/>
    </linearGradient>
    <clipPath id="card1"><rect rx="12" ry="12" width="118" height="70"/></clipPath>
  </defs>

  <!-- Background -->
  <rect width="390" height="844" fill="#f0f2f5"/>

  <!-- Header -->
  <rect width="390" height="64" fill="url(#hdr)"/>
  <text x="20" y="36" font-family="sans-serif" font-weight="bold" font-size="20" fill="white">FinArch</text>
  <text x="20" y="54" font-family="sans-serif" font-size="12" fill="#93c5fd">记账 · 报销 · 统计</text>

  <!-- Summary cards -->
  <!-- Income -->
  <rect x="12" y="80" width="118" height="70" rx="12" fill="#d1fae5"/>
  <text x="22" y="98"  font-family="sans-serif" font-size="11" fill="#6b7280">总收入</text>
  <text x="22" y="125" font-family="sans-serif" font-weight="bold" font-size="15" fill="#059669">¥12,340</text>

  <!-- Expense -->
  <rect x="136" y="80" width="118" height="70" rx="12" fill="#fee2e2"/>
  <text x="146" y="98"  font-family="sans-serif" font-size="11" fill="#6b7280">总支出</text>
  <text x="146" y="125" font-family="sans-serif" font-weight="bold" font-size="15" fill="#dc2626">¥8,720</text>

  <!-- Net -->
  <rect x="260" y="80" width="118" height="70" rx="12" fill="#dbeafe"/>
  <text x="270" y="98"  font-family="sans-serif" font-size="11" fill="#6b7280">净结余</text>
  <text x="270" y="125" font-family="sans-serif" font-weight="bold" font-size="15" fill="#2563eb">¥3,620</text>

  <!-- Transaction list -->
  <!-- Row 1 -->
  <rect x="12" y="168" width="366" height="54" rx="10" fill="white"/>
  <text x="22" y="190" font-family="sans-serif" font-weight="bold" font-size="14" fill="#111827">差旅费</text>
  <text x="22" y="210" font-family="sans-serif" font-size="12" fill="#9ca3af">2026-02-28  ·  差旅</text>
  <text x="300" y="199" font-family="sans-serif" font-weight="bold" font-size="14" fill="#dc2626">-¥1,200</text>

  <!-- Row 2 -->
  <rect x="12" y="230" width="366" height="54" rx="10" fill="white"/>
  <text x="22" y="252" font-family="sans-serif" font-weight="bold" font-size="14" fill="#111827">工资</text>
  <text x="22" y="272" font-family="sans-serif" font-size="12" fill="#9ca3af">2026-02-25  ·  收入</text>
  <text x="300" y="261" font-family="sans-serif" font-weight="bold" font-size="14" fill="#059669">+¥8,000</text>

  <!-- Row 3 -->
  <rect x="12" y="292" width="366" height="54" rx="10" fill="white"/>
  <text x="22" y="314" font-family="sans-serif" font-weight="bold" font-size="14" fill="#111827">餐饮</text>
  <text x="22" y="334" font-family="sans-serif" font-size="12" fill="#9ca3af">2026-02-24  ·  餐饮</text>
  <text x="316" y="323" font-family="sans-serif" font-weight="bold" font-size="14" fill="#dc2626">-¥86</text>

  <!-- Row 4 -->
  <rect x="12" y="354" width="366" height="54" rx="10" fill="white"/>
  <text x="22" y="376" font-family="sans-serif" font-weight="bold" font-size="14" fill="#111827">报销</text>
  <text x="22" y="396" font-family="sans-serif" font-size="12" fill="#9ca3af">2026-02-22  ·  报销</text>
  <text x="300" y="385" font-family="sans-serif" font-weight="bold" font-size="14" fill="#059669">+¥600</text>

  <!-- Row 5 -->
  <rect x="12" y="416" width="366" height="54" rx="10" fill="white"/>
  <text x="22" y="438" font-family="sans-serif" font-weight="bold" font-size="14" fill="#111827">交通</text>
  <text x="22" y="458" font-family="sans-serif" font-size="12" fill="#9ca3af">2026-02-20  ·  交通</text>
  <text x="316" y="447" font-family="sans-serif" font-weight="bold" font-size="14" fill="#dc2626">-¥45</text>

  <!-- Row 6 -->
  <rect x="12" y="478" width="366" height="54" rx="10" fill="white"/>
  <text x="22" y="500" font-family="sans-serif" font-weight="bold" font-size="14" fill="#111827">办公用品</text>
  <text x="22" y="520" font-family="sans-serif" font-size="12" fill="#9ca3af">2026-02-18  ·  办公</text>
  <text x="300" y="509" font-family="sans-serif" font-weight="bold" font-size="14" fill="#dc2626">-¥320</text>
</svg>
